<?xml version="1.0" standalone="yes"?>

<svg version="1.1" viewBox="0.0 0.0 413.5800524934383 373.5564304461942" fill="none" stroke="none" stroke-linecap="square" stroke-miterlimit="10" xmlns="http://www.w3.org/2000/svg" xmlns:xlink="http://www.w3.org/1999/xlink"><clipPath id="p.0"><path d="m0 0l413.58005 0l0 373.55643l-413.58005 0l0 -373.55643z" clip-rule="nonzero"></path></clipPath><g clip-path="url(#p.0)"><path fill="#000000" fill-opacity="0.0" d="m0 0l413.58005 0l0 373.55643l-413.58005 0z" fill-rule="evenodd"></path><path fill="#fff2cc" d="m44.32152 33.206036l79.71654 0l0 79.71654l-79.71654 0z" fill-rule="evenodd"></path><path stroke="#000000" stroke-width="1.0" stroke-linejoin="round" stroke-linecap="butt" d="m44.32152 33.206036l79.71654 0l0 79.71654l-79.71654 0z" fill-rule="evenodd"></path><path fill="#fff2cc" d="m124.038055 33.206036l79.71654 0l0 79.71654l-79.71654 0z" fill-rule="evenodd"></path><path stroke="#000000" stroke-width="1.0" stroke-linejoin="round" stroke-linecap="butt" d="m124.038055 33.206036l79.71654 0l0 79.71654l-79.71654 0z" fill-rule="evenodd"></path><path fill="#cfe2f3" d="m203.7546 33.206036l79.71654 0l0 79.71654l-79.71654 0z" fill-rule="evenodd"></path><path stroke="#000000" stroke-width="1.0" stroke-linejoin="round" stroke-linecap="butt" d="m203.7546 33.206036l79.71654 0l0 79.71654l-79.71654 0z" fill-rule="evenodd"></path><path fill="#cfe2f3" d="m283.47113 33.206036l79.71652 0l0 79.71654l-79.71652 0z" fill-rule="evenodd"></path><path stroke="#000000" stroke-width="1.0" stroke-linejoin="round" stroke-linecap="butt" d="m283.47113 33.206036l79.71652 0l0 79.71654l-79.71652 0z" fill-rule="evenodd"></path><path fill="#fff2cc" d="m44.32152 112.92257l79.71654 0l0 79.716545l-79.71654 0z" fill-rule="evenodd"></path><path stroke="#000000" stroke-width="1.0" stroke-linejoin="round" stroke-linecap="butt" d="m44.32152 112.92257l79.71654 0l0 79.716545l-79.71654 0z" fill-rule="evenodd"></path><path fill="#fff2cc" d="m124.038055 112.919945l79.71654 0l0 79.716545l-79.71654 0z" fill-rule="evenodd"></path><path stroke="#000000" stroke-width="1.0" stroke-linejoin="round" stroke-linecap="butt" d="m124.038055 112.919945l79.71654 0l0 79.716545l-79.71654 0z" fill-rule="evenodd"></path><path fill="#cfe2f3" d="m203.7546 112.92257l79.71654 0l0 79.716545l-79.71654 0z" fill-rule="evenodd"></path><path stroke="#000000" stroke-width="1.0" stroke-linejoin="round" stroke-linecap="butt" d="m203.7546 112.92257l79.71654 0l0 79.716545l-79.71654 0z" fill-rule="evenodd"></path><path fill="#cfe2f3" d="m283.47113 112.92257l79.71652 0l0 79.716545l-79.71652 0z" fill-rule="evenodd"></path><path stroke="#000000" stroke-width="1.0" stroke-linejoin="round" stroke-linecap="butt" d="m283.47113 112.92257l79.71652 0l0 79.716545l-79.71652 0z" fill-rule="evenodd"></path><path fill="#f4cccc" d="m44.32152 192.63911l79.71654 0l0 79.71654l-79.71654 0z" fill-rule="evenodd"></path><path stroke="#000000" stroke-width="1.0" stroke-linejoin="round" stroke-linecap="butt" d="m44.32152 192.63911l79.71654 0l0 79.71654l-79.71654 0z" fill-rule="evenodd"></path><path fill="#f4cccc" d="m124.038055 192.63911l79.71654 0l0 79.71654l-79.71654 0z" fill-rule="evenodd"></path><path stroke="#000000" stroke-width="1.0" stroke-linejoin="round" stroke-linecap="butt" d="m124.038055 192.63911l79.71654 0l0 79.71654l-79.71654 0z" fill-rule="evenodd"></path><path fill="#d9ead3" d="m203.7546 192.63911l79.71654 0l0 79.71654l-79.71654 0z" fill-rule="evenodd"></path><path stroke="#000000" stroke-width="1.0" stroke-linejoin="round" stroke-linecap="butt" d="m203.7546 192.63911l79.71654 0l0 79.71654l-79.71654 0z" fill-rule="evenodd"></path><path fill="#ff0000" d="m229.92587 237.29738l0 -1.375l2.109375 0l0 -5.328125l-1.84375 1.015625l-0.5 -1.265625l2.625 -1.390625l1.3125 0l0 6.96875l1.8125 0l0 1.375l-5.515625 0z" fill-rule="nonzero"></path><path fill="#000000" d="m250.20662 233.15675q0 0.953125 -0.203125 1.734375q-0.1875 0.78125 -0.578125 1.34375q-0.375 0.5625 -0.953125 0.875q-0.578125 0.296875 -1.34375 0.296875q-0.671875 0 -1.21875 -0.25q-0.546875 -0.25 -0.9375 -0.765625q-0.375 -0.515625 -0.59375 -1.328125q-0.203125 -0.8125 -0.203125 -1.90625q0 -0.953125 0.1875 -1.734375q0.203125 -0.796875 0.578125 -1.359375q0.390625 -0.5625 0.96875 -0.859375q0.578125 -0.3125 1.34375 -0.3125q0.65625 0 1.203125 0.25q0.546875 0.25 0.9375 0.78125q0.390625 0.515625 0.59375 1.328125q0.21875 0.796875 0.21875 1.90625zm-1.125 0.03125q0 -0.21875 -0.015625 -0.421875q-0.015625 -0.21875 -0.03125 -0.421875l-3.515625 2.609375q0.09375 0.328125 0.234375 0.609375q0.15625 0.28125 0.359375 0.484375q0.203125 0.203125 0.46875 0.3125q0.265625 0.109375 0.609375 0.109375q0.421875 0 0.765625 -0.203125q0.359375 -0.21875 0.609375 -0.625q0.25 -0.421875 0.375 -1.03125q0.140625 -0.609375 0.140625 -1.421875zm-3.796875 -0.078125q0 0.203125 0 0.40625q0.015625 0.1875 0.03125 0.375l3.515625 -2.59375q-0.109375 -0.328125 -0.25 -0.59375q-0.140625 -0.265625 -0.34375 -0.453125q-0.203125 -0.203125 -0.46875 -0.3125q-0.265625 -0.109375 -0.578125 -0.109375q-0.4375 0 -0.796875 0.21875q-0.34375 0.203125 -0.59375 0.625q-0.25 0.40625 -0.390625 1.03125q-0.125 0.609375 -0.125 1.40625zm12.249741 0.046875q0 0.953125 -0.203125 1.734375q-0.1875 0.78125 -0.578125 1.34375q-0.375 0.5625 -0.953125 0.875q-0.578125 0.296875 -1.34375 0.296875q-0.671875 0 -1.21875 -0.25q-0.546875 -0.25 -0.9375 -0.765625q-0.375 -0.515625 -0.59375 -1.328125q-0.203125 -0.8125 -0.203125 -1.90625q0 -0.953125 0.1875 -1.734375q0.203125 -0.796875 0.578125 -1.359375q0.390625 -0.5625 0.96875 -0.859375q0.578125 -0.3125 1.34375 -0.3125q0.65625 0 1.203125 0.25q0.546875 0.25 0.9375 0.78125q0.390625 0.515625 0.59375 1.328125q0.21875 0.796875 0.21875 1.90625zm-1.125 0.03125q0 -0.21875 -0.015625 -0.421875q-0.015625 -0.21875 -0.03125 -0.421875l-3.515625 2.609375q0.09375 0.328125 0.234375 0.609375q0.15625 0.28125 0.359375 0.484375q0.203125 0.203125 0.46875 0.3125q0.265625 0.109375 0.609375 0.109375q0.421875 0 0.765625 -0.203125q0.359375 -0.21875 0.609375 -0.625q0.25 -0.421875 0.375 -1.03125q0.140625 -0.609375 0.140625 -1.421875zm-3.796875 -0.078125q0 0.203125 0 0.40625q0.015625 0.1875 0.03125 0.375l3.515625 -2.59375q-0.109375 -0.328125 -0.25 -0.59375q-0.140625 -0.265625 -0.34375 -0.453125q-0.203125 -0.203125 -0.46875 -0.3125q-0.265625 -0.109375 -0.578125 -0.109375q-0.4375 0 -0.796875 0.21875q-0.34375 0.203125 -0.59375 0.625q-0.25 0.40625 -0.390625 1.03125q-0.125 0.609375 -0.125 1.40625z" fill-rule="nonzero"></path><path fill="#d9ead3" d="m283.47113 192.63911l79.71652 0l0 79.71654l-79.71652 0z" fill-rule="evenodd"></path><path stroke="#000000" stroke-width="1.0" stroke-linejoin="round" stroke-linecap="butt" d="m283.47113 192.63911l79.71652 0l0 79.71654l-79.71652 0z" fill-rule="evenodd"></path><path fill="#ff0000" d="m309.64243 237.29738l0 -1.375l2.109375 0l0 -5.328125l-1.84375 1.015625l-0.5 -1.265625l2.625 -1.390625l1.3125 0l0 6.96875l1.8125 0l0 1.375l-5.515625 0z" fill-rule="nonzero"></path><path fill="#000000" d="m329.92316 233.15675q0 0.953125 -0.203125 1.734375q-0.1875 0.78125 -0.578125 1.34375q-0.375 0.5625 -0.953125 0.875q-0.578125 0.296875 -1.34375 0.296875q-0.671875 0 -1.21875 -0.25q-0.546875 -0.25 -0.9375 -0.765625q-0.375 -0.515625 -0.59375 -1.328125q-0.203125 -0.8125 -0.203125 -1.90625q0 -0.953125 0.1875 -1.734375q0.203125 -0.796875 0.578125 -1.359375q0.390625 -0.5625 0.96875 -0.859375q0.578125 -0.3125 1.34375 -0.3125q0.65625 0 1.203125 0.25q0.546875 0.25 0.9375 0.78125q0.390625 0.515625 0.59375 1.328125q0.21875 0.796875 0.21875 1.90625zm-1.125 0.03125q0 -0.21875 -0.015625 -0.421875q-0.015625 -0.21875 -0.03125 -0.421875l-3.515625 2.609375q0.09375 0.328125 0.234375 0.609375q0.15625 0.28125 0.359375 0.484375q0.203125 0.203125 0.46875 0.3125q0.265625 0.109375 0.609375 0.109375q0.421875 0 0.765625 -0.203125q0.359375 -0.21875 0.609375 -0.625q0.25 -0.421875 0.375 -1.03125q0.140625 -0.609375 0.140625 -1.421875zm-3.796875 -0.078125q0 0.203125 0 0.40625q0.015625 0.1875 0.03125 0.375l3.515625 -2.59375q-0.109375 -0.328125 -0.25 -0.59375q-0.140625 -0.265625 -0.34375 -0.453125q-0.203125 -0.203125 -0.46875 -0.3125q-0.265625 -0.109375 -0.578125 -0.109375q-0.4375 0 -0.796875 0.21875q-0.34375 0.203125 -0.59375 0.625q-0.25 0.40625 -0.390625 1.03125q-0.125 0.609375 -0.125 1.40625zm11.9841 4.1875l-5.203125 0l0 -1.03125l2.125 0l0 -6.046875l-1.984375 1.078125l-0.40625 -0.9375l2.640625 -1.390625l0.96875 0l0 7.296875l1.859375 0l0 1.03125z" fill-rule="nonzero"></path><path fill="#f4cccc" d="m44.32152 272.35565l79.71654 0l0 79.71652l-79.71654 0z" fill-rule="evenodd"></path><path stroke="#000000" stroke-width="1.0" stroke-linejoin="round" stroke-linecap="butt" d="m44.32152 272.35565l79.71654 0l0 79.71652l-79.71654 0z" fill-rule="evenodd"></path><path fill="#f4cccc" d="m124.038055 272.35565l79.71654 0l0 79.71652l-79.71654 0z" fill-rule="evenodd"></path><path stroke="#000000" stroke-width="1.0" stroke-linejoin="round" stroke-linecap="butt" d="m124.038055 272.35565l79.71654 0l0 79.71652l-79.71654 0z" fill-rule="evenodd"></path><path fill="#d9ead3" d="m203.7546 272.35565l79.71654 0l0 79.71652l-79.71654 0z" fill-rule="evenodd"></path><path stroke="#000000" stroke-width="1.0" stroke-linejoin="round" stroke-linecap="butt" d="m203.7546 272.35565l79.71654 0l0 79.71652l-79.71654 0z" fill-rule="evenodd"></path><path fill="#d9ead3" d="m283.47113 272.35565l79.71652 0l0 79.71652l-79.71652 0z" fill-rule="evenodd"></path><path stroke="#000000" stroke-width="1.0" stroke-linejoin="round" stroke-linecap="butt" d="m283.47113 272.35565l79.71652 0l0 79.71652l-79.71652 0z" fill-rule="evenodd"></path><path fill="#000000" fill-opacity="0.0" d="m6.4816275 33.206036l33.291336 0l0 318.86615l-33.291336 0z" fill-rule="evenodd"></path><path fill="#000000" d="m25.106627 120.06354q0 1.390625 -0.28125 2.546875q-0.265625 1.140625 -0.84375 1.96875q-0.5625 0.8125 -1.40625 1.265625q-0.828125 0.453125 -1.96875 0.453125q-0.96875 0 -1.765625 -0.359375q-0.796875 -0.375 -1.375 -1.140625q-0.5625 -0.765625 -0.875 -1.9375q-0.296875 -1.171875 -0.296875 -2.796875q0 -1.390625 0.28125 -2.53125q0.28125 -1.15625 0.84375 -1.96875q0.5625 -0.828125 1.40625 -1.28125q0.84375 -0.453125 1.96875 -0.453125q0.984375 0 1.78125 0.375q0.796875 0.359375 1.359375 1.125q0.5625 0.765625 0.859375 1.953125q0.3125 1.171875 0.3125 2.78125zm-1.625 0.0625q0 -0.3125 -0.03125 -0.625q-0.015625 -0.3125 -0.046875 -0.609375l-5.125 3.8125q0.140625 0.484375 0.34375 0.890625q0.21875 0.40625 0.515625 0.703125q0.3125 0.28125 0.6875 0.453125q0.390625 0.15625 0.875 0.15625q0.640625 0 1.15625 -0.296875q0.515625 -0.3125 0.875 -0.90625q0.359375 -0.609375 0.546875 -1.5q0.203125 -0.90625 0.203125 -2.078125zm-5.546875 -0.109375q0 0.28125 0 0.578125q0 0.28125 0.03125 0.546875l5.125 -3.796875q-0.125 -0.46875 -0.34375 -0.859375q-0.21875 -0.390625 -0.515625 -0.671875q-0.296875 -0.28125 -0.671875 -0.4375q-0.375 -0.15625 -0.859375 -0.15625q-0.625 0 -1.140625 0.3125q-0.515625 0.296875 -0.875 0.90625q-0.359375 0.609375 -0.5625 1.5q-0.1875 0.890625 -0.1875 2.078125z" fill-rule="nonzero"></path><path fill="#ff0000" d="m16.887877 280.12604l0 -2.015625l3.09375 0l0 -7.796875l-2.6875 1.484375l-0.75 -1.84375l3.859375 -2.03125l1.890625 0l0 10.1875l2.671875 0l0 2.015625l-8.078125 0z" fill-rule="nonzero"></path><path fill="#000000" fill-opacity="0.0" d="m267.47113 73.06431l36.75589 0" fill-rule="evenodd"></path><path stroke="#000000" stroke-width="1.0" stroke-linejoin="round" stroke-linecap="butt" stroke-dasharray="4.0,3.0" d="m267.47113 73.06431l30.75589 0" fill-rule="evenodd"></path><path fill="#000000" stroke="#000000" stroke-width="1.0" stroke-linecap="butt" d="m298.22702 74.716034l4.5381165 -1.6517258l-4.5381165 -1.6517334z" fill-rule="evenodd"></path><path fill="#000000" fill-opacity="0.0" d="m267.3262 233.21872l36.75589 0" fill-rule="evenodd"></path><path stroke="#000000" stroke-width="2.0" stroke-linejoin="round" stroke-linecap="butt" d="m267.3262 233.21873l24.75589 0" fill-rule="evenodd"></path><path fill="#000000" stroke="#000000" stroke-width="2.0" stroke-linecap="butt" d="m292.0821 236.5222l9.076202 -3.3034668l-9.076202 -3.3034668z" fill-rule="evenodd"></path><path fill="#000000" fill-opacity="0.0" d="m44.322834 4.4488025l318.86612 0l0 23.464567l-318.86612 0z" fill-rule="evenodd"></path><path fill="#000000" d="m124.4916 17.038584q0 1.390625 -0.28125 2.546875q-0.265625 1.140625 -0.84375 1.96875q-0.5625 0.8125 -1.40625 1.265625q-0.828125 0.453125 -1.96875 0.453125q-0.96875 0 -1.765625 -0.359375q-0.796875 -0.375 -1.375 -1.140625q-0.5625 -0.765625 -0.875 -1.9375q-0.296875 -1.171875 -0.296875 -2.796875q0 -1.390626 0.28125 -2.531251q0.28125 -1.15625 0.84375 -1.96875q0.5625 -0.828125 1.40625 -1.28125q0.84375 -0.453125 1.96875 -0.453125q0.984375 0 1.78125 0.375q0.796875 0.359375 1.359375 1.125q0.5625 0.765625 0.859375 1.953125q0.3125 1.171875 0.3125 2.781251zm-1.625 0.0625q0 -0.3125 -0.03125 -0.625q-0.015625 -0.3125 -0.046875 -0.60937595l-5.125 3.812501q0.140625 0.484375 0.34375 0.890625q0.21875 0.40625 0.515625 0.703125q0.3125 0.28125 0.6875 0.453125q0.390625 0.15625 0.875 0.15625q0.640625 0 1.15625 -0.296875q0.515625 -0.3125 0.875 -0.90625q0.359375 -0.609375 0.546875 -1.5q0.203125 -0.90625 0.203125 -2.078125zm-5.546875 -0.109375q0 0.28125 0 0.578125q0 0.28125 0.03125 0.546875l5.125 -3.796876q-0.125 -0.46875 -0.34375 -0.859375q-0.21875 -0.390625 -0.515625 -0.671875q-0.296875 -0.28125 -0.671875 -0.4375q-0.375 -0.15625 -0.859375 -0.15625q-0.625 0 -1.140625 0.3125q-0.515625 0.296875 -0.875 0.90625q-0.359375 0.609375 -0.5625 1.5q-0.1875 0.890625 -0.1875 2.078126z" fill-rule="nonzero"></path><path fill="#ff0000" d="m270.13226 23.101084l0 -2.015625l3.09375 0l0 -7.796876l-2.6875 1.484375l-0.75 -1.84375l3.859375 -2.03125l1.890625 0l0 10.187501l2.671875 0l0 2.015625l-8.078125 0z" fill-rule="nonzero"></path><path fill="#000000" fill-opacity="0.0" d="m106.858696 70.410324l36.755913 0" fill-rule="evenodd"></path><path stroke="#000000" stroke-width="1.0" stroke-linejoin="round" stroke-linecap="butt" stroke-dasharray="4.0,3.0" d="m106.858696 70.410324l30.755913 0" fill-rule="evenodd"></path><path fill="#000000" stroke="#000000" stroke-width="1.0" stroke-linecap="butt" d="m137.61461 72.06205l4.538086 -1.6517258l-4.538086 -1.6517334z" fill-rule="evenodd"></path><path fill="#000000" fill-opacity="0.0" d="m105.69699 235.15048l36.755905 0" fill-rule="evenodd"></path><path stroke="#000000" stroke-width="1.0" stroke-linejoin="round" stroke-linecap="butt" stroke-dasharray="4.0,3.0" d="m105.69699 235.15048l30.755905 0" fill-rule="evenodd"></path><path fill="#000000" stroke="#000000" stroke-width="1.0" stroke-linecap="butt" d="m136.4529 236.80222l4.538101 -1.6517334l-4.538101 -1.6517334z" fill-rule="evenodd"></path></g></svg>

