<?xml version="1.0" standalone="yes"?>

<svg version="1.1" viewBox="0.0 0.0 605.1758530183727 383.84251968503935" fill="none" stroke="none" stroke-linecap="square" stroke-miterlimit="10" xmlns="http://www.w3.org/2000/svg" xmlns:xlink="http://www.w3.org/1999/xlink"><clipPath id="p.0"><path d="m0 0l605.17584 0l0 383.84253l-605.17584 0l0 -383.84253z" clip-rule="nonzero"></path></clipPath><g clip-path="url(#p.0)"><path fill="#000000" fill-opacity="0.0" d="m0 0l605.17584 0l0 383.84253l-605.17584 0z" fill-rule="evenodd"></path><path fill="#fff2cc" d="m42.034122 37.885845l79.71654 0l0 79.71654l-79.71654 0z" fill-rule="evenodd"></path><path stroke="#000000" stroke-width="1.0" stroke-linejoin="round" stroke-linecap="butt" d="m42.034122 37.885845l79.71654 0l0 79.71654l-79.71654 0z" fill-rule="evenodd"></path><path fill="#fff2cc" d="m121.750656 37.885845l79.71654 0l0 79.71654l-79.71654 0z" fill-rule="evenodd"></path><path stroke="#000000" stroke-width="1.0" stroke-linejoin="round" stroke-linecap="butt" d="m121.750656 37.885845l79.71654 0l0 79.71654l-79.71654 0z" fill-rule="evenodd"></path><path fill="#cfe2f3" d="m201.4672 37.885845l79.71652 0l0 79.71654l-79.71652 0z" fill-rule="evenodd"></path><path stroke="#000000" stroke-width="1.0" stroke-linejoin="round" stroke-linecap="butt" d="m201.4672 37.885845l79.71652 0l0 79.71654l-79.71652 0z" fill-rule="evenodd"></path><path fill="#cfe2f3" d="m281.18372 37.885845l79.71655 0l0 79.71654l-79.71655 0z" fill-rule="evenodd"></path><path stroke="#000000" stroke-width="1.0" stroke-linejoin="round" stroke-linecap="butt" d="m281.18372 37.885845l79.71655 0l0 79.71654l-79.71655 0z" fill-rule="evenodd"></path><path fill="#fff2cc" d="m42.034122 117.60238l79.71654 0l0 79.71653l-79.71654 0z" fill-rule="evenodd"></path><path stroke="#000000" stroke-width="1.0" stroke-linejoin="round" stroke-linecap="butt" d="m42.034122 117.60238l79.71654 0l0 79.71653l-79.71654 0z" fill-rule="evenodd"></path><path fill="#fff2cc" d="m121.750656 117.60238l79.71654 0l0 79.71653l-79.71654 0z" fill-rule="evenodd"></path><path stroke="#000000" stroke-width="1.0" stroke-linejoin="round" stroke-linecap="butt" d="m121.750656 117.60238l79.71654 0l0 79.71653l-79.71654 0z" fill-rule="evenodd"></path><path fill="#cfe2f3" d="m201.4672 117.60238l79.71652 0l0 79.71653l-79.71652 0z" fill-rule="evenodd"></path><path stroke="#000000" stroke-width="1.0" stroke-linejoin="round" stroke-linecap="butt" d="m201.4672 117.60238l79.71652 0l0 79.71653l-79.71652 0z" fill-rule="evenodd"></path><path fill="#cfe2f3" d="m281.18372 117.60238l79.71655 0l0 79.71653l-79.71655 0z" fill-rule="evenodd"></path><path stroke="#000000" stroke-width="1.0" stroke-linejoin="round" stroke-linecap="butt" d="m281.18372 117.60238l79.71655 0l0 79.71653l-79.71655 0z" fill-rule="evenodd"></path><path fill="#f4cccc" d="m42.034122 197.31891l79.71654 0l0 79.71655l-79.71654 0z" fill-rule="evenodd"></path><path stroke="#000000" stroke-width="1.0" stroke-linejoin="round" stroke-linecap="butt" d="m42.034122 197.31891l79.71654 0l0 79.71655l-79.71654 0z" fill-rule="evenodd"></path><path fill="#f4cccc" d="m121.750656 197.31891l79.71654 0l0 79.71655l-79.71654 0z" fill-rule="evenodd"></path><path stroke="#000000" stroke-width="1.0" stroke-linejoin="round" stroke-linecap="butt" d="m121.750656 197.31891l79.71654 0l0 79.71655l-79.71654 0z" fill-rule="evenodd"></path><path fill="#d9ead3" d="m201.4672 197.31891l79.71652 0l0 79.71655l-79.71652 0z" fill-rule="evenodd"></path><path stroke="#000000" stroke-width="1.0" stroke-linejoin="round" stroke-linecap="butt" d="m201.4672 197.31891l79.71652 0l0 79.71655l-79.71652 0z" fill-rule="evenodd"></path><path fill="#000000" d="m229.33392 241.97717l-5.203125 0l0 -1.03125l2.125 0l0 -6.046875l-1.984375 1.078125l-0.40625 -0.9375l2.640625 -1.390625l0.96875 0l0 7.296875l1.859375 0l0 1.03125zm7.3278656 0l-5.203125 0l0 -1.03125l2.125 0l0 -6.046875l-1.984375 1.078125l-0.40625 -0.9375l2.640625 -1.390625l0.96875 0l0 7.296875l1.859375 0l0 1.03125zm14.921356 -4.140625q0 0.953125 -0.203125 1.734375q-0.1875 0.78125 -0.578125 1.34375q-0.375 0.5625 -0.953125 0.875q-0.578125 0.296875 -1.34375 0.296875q-0.671875 0 -1.21875 -0.25q-0.546875 -0.25 -0.9375 -0.765625q-0.375 -0.515625 -0.59375 -1.328125q-0.203125 -0.8125 -0.203125 -1.90625q0 -0.953125 0.1875 -1.734375q0.203125 -0.796875 0.578125 -1.359375q0.390625 -0.5625 0.96875 -0.859375q0.578125 -0.3125 1.34375 -0.3125q0.65625 0 1.203125 0.25q0.546875 0.25 0.9375 0.78125q0.390625 0.515625 0.59375 1.328125q0.21875 0.796875 0.21875 1.90625zm-1.125 0.03125q0 -0.21875 -0.015625 -0.421875q-0.015625 -0.21875 -0.03125 -0.421875l-3.515625 2.609375q0.09375 0.328125 0.234375 0.609375q0.15625 0.28125 0.359375 0.484375q0.203125 0.203125 0.46875 0.3125q0.265625 0.109375 0.609375 0.109375q0.421875 0 0.765625 -0.203125q0.359375 -0.21875 0.609375 -0.625q0.25 -0.421875 0.375 -1.03125q0.140625 -0.609375 0.140625 -1.421875zm-3.796875 -0.078125q0 0.203125 0 0.40625q0.015625 0.1875 0.03125 0.375l3.515625 -2.59375q-0.109375 -0.328125 -0.25 -0.59375q-0.140625 -0.265625 -0.34375 -0.453125q-0.203125 -0.203125 -0.46875 -0.3125q-0.265625 -0.109375 -0.578125 -0.109375q-0.4375 0 -0.796875 0.21875q-0.34375 0.203125 -0.59375 0.625q-0.25 0.40625 -0.390625 1.03125q-0.125 0.609375 -0.125 1.40625zm12.249741 0.046875q0 0.953125 -0.203125 1.734375q-0.1875 0.78125 -0.578125 1.34375q-0.375 0.5625 -0.953125 0.875q-0.578125 0.296875 -1.34375 0.296875q-0.671875 0 -1.21875 -0.25q-0.546875 -0.25 -0.9375 -0.765625q-0.375 -0.515625 -0.59375 -1.328125q-0.203125 -0.8125 -0.203125 -1.90625q0 -0.953125 0.1875 -1.734375q0.203125 -0.796875 0.578125 -1.359375q0.390625 -0.5625 0.96875 -0.859375q0.578125 -0.3125 1.34375 -0.3125q0.65625 0 1.203125 0.25q0.546875 0.25 0.9375 0.78125q0.390625 0.515625 0.59375 1.328125q0.21875 0.796875 0.21875 1.90625zm-1.125 0.03125q0 -0.21875 -0.015625 -0.421875q-0.015625 -0.21875 -0.03125 -0.421875l-3.515625 2.609375q0.09375 0.328125 0.234375 0.609375q0.15625 0.28125 0.359375 0.484375q0.203125 0.203125 0.46875 0.3125q0.265625 0.109375 0.609375 0.109375q0.421875 0 0.765625 -0.203125q0.359375 -0.21875 0.609375 -0.625q0.25 -0.421875 0.375 -1.03125q0.140625 -0.609375 0.140625 -1.421875zm-3.796875 -0.078125q0 0.203125 0 0.40625q0.015625 0.1875 0.03125 0.375l3.515625 -2.59375q-0.109375 -0.328125 -0.25 -0.59375q-0.140625 -0.265625 -0.34375 -0.453125q-0.203125 -0.203125 -0.46875 -0.3125q-0.265625 -0.109375 -0.578125 -0.109375q-0.4375 0 -0.796875 0.21875q-0.34375 0.203125 -0.59375 0.625q-0.25 0.40625 -0.390625 1.03125q-0.125 0.609375 -0.125 1.40625z" fill-rule="nonzero"></path><path fill="#d9ead3" d="m281.18372 197.31891l79.71655 0l0 79.71655l-79.71655 0z" fill-rule="evenodd"></path><path stroke="#000000" stroke-width="1.0" stroke-linejoin="round" stroke-linecap="butt" d="m281.18372 197.31891l79.71655 0l0 79.71655l-79.71655 0z" fill-rule="evenodd"></path><path fill="#000000" d="m309.05045 241.97717l-5.203125 0l0 -1.03125l2.125 0l0 -6.046875l-1.984375 1.078125l-0.40625 -0.9375l2.640625 -1.390625l0.96875 0l0 7.296875l1.859375 0l0 1.03125zm7.327881 0l-5.203125 0l0 -1.03125l2.125 0l0 -6.046875l-1.984375 1.078125l-0.40625 -0.9375l2.640625 -1.390625l0.96875 0l0 7.296875l1.859375 0l0 1.03125zm14.921356 -4.140625q0 0.953125 -0.203125 1.734375q-0.1875 0.78125 -0.578125 1.34375q-0.375 0.5625 -0.953125 0.875q-0.578125 0.296875 -1.34375 0.296875q-0.671875 0 -1.21875 -0.25q-0.546875 -0.25 -0.9375 -0.765625q-0.375 -0.515625 -0.59375 -1.328125q-0.203125 -0.8125 -0.203125 -1.90625q0 -0.953125 0.1875 -1.734375q0.203125 -0.796875 0.578125 -1.359375q0.390625 -0.5625 0.96875 -0.859375q0.578125 -0.3125 1.34375 -0.3125q0.65625 0 1.203125 0.25q0.546875 0.25 0.9375 0.78125q0.390625 0.515625 0.59375 1.328125q0.21875 0.796875 0.21875 1.90625zm-1.125 0.03125q0 -0.21875 -0.015625 -0.421875q-0.015625 -0.21875 -0.03125 -0.421875l-3.515625 2.609375q0.09375 0.328125 0.234375 0.609375q0.15625 0.28125 0.359375 0.484375q0.203125 0.203125 0.46875 0.3125q0.265625 0.109375 0.609375 0.109375q0.421875 0 0.765625 -0.203125q0.359375 -0.21875 0.609375 -0.625q0.25 -0.421875 0.375 -1.03125q0.140625 -0.609375 0.140625 -1.421875zm-3.796875 -0.078125q0 0.203125 0 0.40625q0.015625 0.1875 0.03125 0.375l3.515625 -2.59375q-0.109375 -0.328125 -0.25 -0.59375q-0.140625 -0.265625 -0.34375 -0.453125q-0.203125 -0.203125 -0.46875 -0.3125q-0.265625 -0.109375 -0.578125 -0.109375q-0.4375 0 -0.796875 0.21875q-0.34375 0.203125 -0.59375 0.625q-0.25 0.40625 -0.390625 1.03125q-0.125 0.609375 -0.125 1.40625zm11.9841 4.1875l-5.203125 0l0 -1.03125l2.125 0l0 -6.046875l-1.984375 1.078125l-0.40625 -0.9375l2.640625 -1.390625l0.96875 0l0 7.296875l1.859375 0l0 1.03125z" fill-rule="nonzero"></path><path fill="#f4cccc" d="m42.034122 277.03546l79.71654 0l0 79.71652l-79.71654 0z" fill-rule="evenodd"></path><path stroke="#000000" stroke-width="1.0" stroke-linejoin="round" stroke-linecap="butt" d="m42.034122 277.03546l79.71654 0l0 79.71652l-79.71654 0z" fill-rule="evenodd"></path><path fill="#f4cccc" d="m121.750656 277.03546l79.71654 0l0 79.71652l-79.71654 0z" fill-rule="evenodd"></path><path stroke="#000000" stroke-width="1.0" stroke-linejoin="round" stroke-linecap="butt" d="m121.750656 277.03546l79.71654 0l0 79.71652l-79.71654 0z" fill-rule="evenodd"></path><path fill="#d9ead3" d="m201.4672 277.03546l79.71652 0l0 79.71652l-79.71652 0z" fill-rule="evenodd"></path><path stroke="#000000" stroke-width="1.0" stroke-linejoin="round" stroke-linecap="butt" d="m201.4672 277.03546l79.71652 0l0 79.71652l-79.71652 0z" fill-rule="evenodd"></path><path fill="#d9ead3" d="m281.18372 277.03546l79.71655 0l0 79.71652l-79.71655 0z" fill-rule="evenodd"></path><path stroke="#000000" stroke-width="1.0" stroke-linejoin="round" stroke-linecap="butt" d="m281.18372 277.03546l79.71655 0l0 79.71652l-79.71655 0z" fill-rule="evenodd"></path><path fill="#000000" fill-opacity="0.0" d="m421.59317 38.190308l79.71655 0l0 79.71654l-79.71655 0z" fill-rule="evenodd"></path><path stroke="#000000" stroke-width="1.0" stroke-linejoin="round" stroke-linecap="butt" d="m421.59317 38.190308l79.71655 0l0 79.71654l-79.71655 0z" fill-rule="evenodd"></path><path fill="#000000" fill-opacity="0.0" d="m501.30972 38.190308l79.71652 0l0 79.71654l-79.71652 0z" fill-rule="evenodd"></path><path stroke="#000000" stroke-width="1.0" stroke-linejoin="round" stroke-linecap="butt" d="m501.30972 38.190308l79.71652 0l0 79.71654l-79.71652 0z" fill-rule="evenodd"></path><path fill="#000000" fill-opacity="0.0" d="m421.59317 117.906845l79.71655 0l0 79.71654l-79.71655 0z" fill-rule="evenodd"></path><path stroke="#000000" stroke-width="1.0" stroke-linejoin="round" stroke-linecap="butt" d="m421.59317 117.906845l79.71655 0l0 79.71654l-79.71655 0z" fill-rule="evenodd"></path><path fill="#000000" fill-opacity="0.0" d="m501.30972 117.906845l79.71652 0l0 79.71654l-79.71652 0z" fill-rule="evenodd"></path><path stroke="#000000" stroke-width="1.0" stroke-linejoin="round" stroke-linecap="butt" d="m501.30972 117.906845l79.71652 0l0 79.71654l-79.71652 0z" fill-rule="evenodd"></path><path fill="#000000" fill-opacity="0.0" d="m42.034122 2.9908316l318.86615 0l0 27.559055l-318.86615 0z" fill-rule="evenodd"></path><path fill="#000000" d="m122.20288 17.627857q0 1.390625 -0.28125 2.546875q-0.265625 1.140625 -0.84375 1.96875q-0.5625 0.8125 -1.40625 1.265625q-0.828125 0.453125 -1.96875 0.453125q-0.96875 0 -1.765625 -0.359375q-0.796875 -0.375 -1.375 -1.140625q-0.5625 -0.765625 -0.875 -1.9375q-0.296875 -1.171875 -0.296875 -2.796875q0 -1.390625 0.28125 -2.53125q0.28125 -1.15625 0.84375 -1.96875q0.5625 -0.828125 1.40625 -1.28125q0.84375 -0.453125 1.96875 -0.453125q0.984375 0 1.78125 0.375q0.796875 0.359375 1.359375 1.125q0.5625 0.765625 0.859375 1.953125q0.3125 1.171875 0.3125 2.78125zm-1.625 0.0625q0 -0.3125 -0.03125 -0.625q-0.015625 -0.3125 -0.046875 -0.609375l-5.125 3.8125q0.140625 0.484375 0.34375 0.890625q0.21875 0.40625 0.515625 0.703125q0.3125 0.28125 0.6875 0.453125q0.390625 0.15625 0.875 0.15625q0.640625 0 1.15625 -0.296875q0.515625 -0.3125 0.875 -0.90625q0.359375 -0.609375 0.546875 -1.5q0.203125 -0.90625 0.203125 -2.078125zm-5.546875 -0.109375q0 0.28125 0 0.578125q0 0.28125 0.03125 0.546875l5.125 -3.796875q-0.125 -0.46875 -0.34375 -0.859375q-0.21875 -0.390625 -0.515625 -0.671875q-0.296875 -0.28125 -0.671875 -0.4375q-0.375 -0.15625 -0.859375 -0.15625q-0.625 0 -1.140625 0.3125q-0.515625 0.296875 -0.875 0.90625q-0.359375 0.609375 -0.5625 1.5q-0.1875 0.890625 -0.1875 2.078125zm160.65628 6.109375l-7.609375 0l0 -1.5l3.109375 0l0 -8.859375l-2.90625 1.578125l-0.59375 -1.375l3.859375 -2.03125l1.4375 0l0 10.6875l2.703125 0l0 1.5z" fill-rule="nonzero"></path><path fill="#000000" fill-opacity="0.0" d="m382.58267 41.694244l33.29135 0l0 155.93701l-33.29135 0z" fill-rule="evenodd"></path><path fill="#000000" d="m401.20767 84.55174q0 1.390625 -0.28125 2.546875q-0.265625 1.140625 -0.84375 1.96875q-0.5625 0.8125 -1.40625 1.265625q-0.828125 0.453125 -1.96875 0.453125q-0.96875 0 -1.765625 -0.359375q-0.796875 -0.375 -1.375 -1.140625q-0.5625 -0.765625 -0.875 -1.9375q-0.296875 -1.171875 -0.296875 -2.796875q0 -1.390625 0.28125 -2.53125q0.28125 -1.15625 0.84375 -1.96875q0.5625 -0.828125 1.40625 -1.28125q0.84375 -0.453125 1.96875 -0.453125q0.984375 0 1.78125 0.375q0.796875 0.359375 1.359375 1.125q0.5625 0.765625 0.859375 1.953125q0.3125 1.171875 0.3125 2.78125zm-1.625 0.0625q0 -0.3125 -0.03125 -0.625q-0.015625 -0.3125 -0.046875 -0.609375l-5.125 3.8125q0.140625 0.484375 0.34375 0.890625q0.21875 0.40625 0.515625 0.703125q0.3125 0.28125 0.6875 0.453125q0.390625 0.15625 0.875 0.15625q0.640625 0 1.15625 -0.296875q0.515625 -0.3125 0.875 -0.90625q0.359375 -0.609375 0.546875 -1.5q0.203125 -0.90625 0.203125 -2.078125zm-5.546875 -0.109375q0 0.28125 0 0.578125q0 0.28125 0.03125 0.546875l5.125 -3.796875q-0.125 -0.46875 -0.34375 -0.859375q-0.21875 -0.390625 -0.515625 -0.671875q-0.296875 -0.28125 -0.671875 -0.4375q-0.375 -0.15625 -0.859375 -0.15625q-0.625 0 -1.140625 0.3125q-0.515625 0.296875 -0.875 0.90625q-0.359375 0.609375 -0.5625 1.5q-0.1875 0.890625 -0.1875 2.078125z" fill-rule="nonzero"></path><path fill="#000000" d="m400.83267 156.61424l-7.609375 0l0 -1.5l3.109375 0l0 -8.859375l-2.90625 1.578125l-0.59375 -1.375l3.859375 -2.03125l1.4375 0l0 10.6875l2.703125 0l0 1.5z" fill-rule="nonzero"></path><path fill="#000000" fill-opacity="0.0" d="m421.59317 2.9913003l159.43307 0l0 27.559055l-159.43307 0z" fill-rule="evenodd"></path><path fill="#000000" d="m460.73276 17.628326q0 1.390625 -0.28125 2.546875q-0.265625 1.140625 -0.84375 1.96875q-0.5625 0.8125 -1.40625 1.265625q-0.828125 0.453125 -1.96875 0.453125q-0.96875 0 -1.765625 -0.359375q-0.796875 -0.375 -1.375 -1.140625q-0.5625 -0.765625 -0.875 -1.9375q-0.296875 -1.171875 -0.296875 -2.796875q0 -1.390625 0.28125 -2.53125q0.28125 -1.15625 0.84375 -1.96875q0.5625 -0.828125 1.40625 -1.28125q0.84375 -0.453125 1.96875 -0.453125q0.984375 0 1.78125 0.375q0.796875 0.359375 1.359375 1.125q0.5625 0.765625 0.859375 1.953125q0.3125 1.171875 0.3125 2.78125zm-1.625 0.0625q0 -0.3125 -0.03125 -0.625q-0.015625 -0.3125 -0.046875 -0.609375l-5.125 3.8125q0.140625 0.484375 0.34375 0.890625q0.21875 0.40625 0.515625 0.703125q0.3125 0.28125 0.6875 0.453125q0.390625 0.15625 0.875 0.15625q0.640625 0 1.15625 -0.296875q0.515625 -0.3125 0.875 -0.90625q0.359375 -0.609375 0.546875 -1.5q0.203125 -0.90625 0.203125 -2.078125zm-5.546875 -0.109375q0 0.28125 0 0.578125q0 0.28125 0.03125 0.546875l5.125 -3.796875q-0.125 -0.46875 -0.34375 -0.859375q-0.21875 -0.390625 -0.515625 -0.671875q-0.296875 -0.28125 -0.671875 -0.4375q-0.375 -0.15625 -0.859375 -0.15625q-0.625 0 -1.140625 0.3125q-0.515625 0.296875 -0.875 0.90625q-0.359375 0.609375 -0.5625 1.5q-0.1875 0.890625 -0.1875 2.078125zm88.855255 6.109375l-7.609375 0l0 -1.5l3.109375 0l0 -8.859375l-2.90625 1.578125l-0.59375 -1.375l3.859375 -2.03125l1.4375 0l0 10.6875l2.703125 0l0 1.5z" fill-rule="nonzero"></path><path fill="#000000" fill-opacity="0.0" d="m4.194226 37.885845l33.29134 0l0 318.86615l-33.29134 0z" fill-rule="evenodd"></path><path fill="#000000" d="m22.819225 124.74334q0 1.390625 -0.28125 2.546875q-0.265625 1.1406326 -0.84375 1.9687576q-0.5625 0.8125 -1.40625 1.265625q-0.828125 0.453125 -1.96875 0.453125q-0.96875 0 -1.765625 -0.359375q-0.796875 -0.375 -1.375 -1.140625q-0.5625 -0.765625 -0.875 -1.9375076q-0.296875 -1.171875 -0.296875 -2.796875q0 -1.390625 0.28125 -2.53125q0.28125 -1.15625 0.84375 -1.96875q0.5625 -0.828125 1.40625 -1.28125q0.84375 -0.453125 1.96875 -0.453125q0.984375 0 1.78125 0.375q0.796875 0.359375 1.359375 1.125q0.5625 0.765625 0.859375 1.953125q0.3125 1.171875 0.3125 2.78125zm-1.625 0.0625q0 -0.3125 -0.03125 -0.625q-0.015625 -0.3125 -0.046875 -0.609375l-5.125 3.8125q0.140625 0.484375 0.34375 0.8906326q0.21875 0.40625 0.515625 0.703125q0.3125 0.28125 0.6875 0.453125q0.390625 0.15625 0.875 0.15625q0.640625 0 1.15625 -0.296875q0.515625 -0.3125 0.875 -0.90625q0.359375 -0.6093826 0.546875 -1.5000076q0.203125 -0.90625 0.203125 -2.078125zm-5.546875 -0.109375q0 0.28125 0 0.578125q0 0.28125 0.03125 0.546875l5.125 -3.796875q-0.125 -0.46875 -0.34375 -0.859375q-0.21875 -0.390625 -0.515625 -0.671875q-0.296875 -0.28125 -0.671875 -0.4375q-0.375 -0.15625 -0.859375 -0.15625q-0.625 0 -1.140625 0.3125q-0.515625 0.296875 -0.875 0.90625q-0.359375 0.609375 -0.5625 1.5q-0.1875 0.890625 -0.1875 2.078125z" fill-rule="nonzero"></path><path fill="#000000" d="m22.444225 284.80585l-7.609375 0l0 -1.5l3.109375 0l0 -8.859375l-2.90625 1.578125l-0.59375 -1.375l3.859375 -2.03125l1.4375 0l0 10.6875l2.703125 0l0 1.5z" fill-rule="nonzero"></path><path fill="#000000" fill-opacity="0.0" d="m262.03207 238.14l36.75592 0" fill-rule="evenodd"></path><path stroke="#000000" stroke-width="2.0" stroke-linejoin="round" stroke-linecap="butt" d="m262.03207 238.13998l24.75589 0" fill-rule="evenodd"></path><path fill="#000000" stroke="#000000" stroke-width="2.0" stroke-linecap="butt" d="m286.78796 241.44345l9.076202 -3.3034668l-9.076202 -3.3034668z" fill-rule="evenodd"></path></g></svg>

