<?xml version="1.0" encoding="UTF-8" standalone="no"?>
<!-- Created with Inkscape (http://www.inkscape.org/) -->

<svg
   xmlns:dc="http://purl.org/dc/elements/1.1/"
   xmlns:cc="http://creativecommons.org/ns#"
   xmlns:rdf="http://www.w3.org/1999/02/22-rdf-syntax-ns#"
   xmlns:svg="http://www.w3.org/2000/svg"
   xmlns="http://www.w3.org/2000/svg"
   xmlns:sodipodi="http://sodipodi.sourceforge.net/DTD/sodipodi-0.dtd"
   xmlns:inkscape="http://www.inkscape.org/namespaces/inkscape"
   width="156mm"
   height="234mm"
   viewBox="0 0 156 234.00001"
   version="1.1"
   id="svg8"
   inkscape:version="0.92.5 (2060ec1f9f, 2020-04-08)"
   sodipodi:docname="cover.svg">
  <sodipodi:namedview
     id="base"
     pagecolor="#88abc2"
     bordercolor="#666666"
     borderopacity="1.0"
     inkscape:pageopacity="0"
     inkscape:pageshadow="2"
     inkscape:zoom="0.70710678"
     inkscape:cx="365.94588"
     inkscape:cy="45.351185"
     inkscape:document-units="mm"
     inkscape:current-layer="layer4"
     showgrid="true"
     inkscape:window-width="1848"
     inkscape:window-height="1016"
     inkscape:window-x="72"
     inkscape:window-y="27"
     inkscape:window-maximized="1"
     showguides="true"
     inkscape:snap-text-baseline="true"
     inkscape:pagecheckerboard="true"
     inkscape:guide-bbox="true"
     objecttolerance="1"
     showborder="false"
     width="322mm"
     fit-margin-left="-20"
     fit-margin-top="0"
     fit-margin-right="0"
     fit-margin-bottom="0">
    <sodipodi:guide
       position="3.3772954e-05,170.46665"
       orientation="1,0"
       id="guide5036"
       inkscape:locked="false" />
    <sodipodi:guide
       position="156.00083,284.3479"
       orientation="1,0"
       id="guide5038"
       inkscape:locked="false" />
    <sodipodi:guide
       position="166.00125,336.83358"
       orientation="1,0"
       id="guide5042"
       inkscape:locked="false" />
    <sodipodi:guide
       position="10.000034,-0.00063903692"
       orientation="0,1"
       id="guide5048"
       inkscape:locked="false" />
    <sodipodi:guide
       position="322,332.50102"
       orientation="1,0"
       id="guide1193"
       inkscape:locked="false" />
    <sodipodi:guide
       position="-16.835115,233.99749"
       orientation="0,1"
       id="guide1197"
       inkscape:locked="false" />
    <sodipodi:guide
       position="228.62236,205.42273"
       orientation="1,0"
       id="guide5805"
       inkscape:locked="false" />
  </sodipodi:namedview>
  <defs
     id="defs2">
    <clipPath
       id="clipPath1283"
       clipPathUnits="userSpaceOnUse">
      <path
         style="fill:#ffffff;fill-opacity:1;stroke:#000000;stroke-width:0.98202991px;stroke-linecap:butt;stroke-linejoin:miter;stroke-opacity:1"
         d="m 624.57718,848.31198 c 0,0 -110.25184,-41.39119 -213.00835,-37.63116 -101.79271,3.7248 -111.44022,8.69416 -162.70964,17.3097 -51.01495,8.5728 -99.66957,15.72635 -149.520339,15.72635 -49.850672,0 78.390329,-80.66721 109.490289,-108.79071 29.12865,-26.34104 88.54811,-64.17305 112.31437,-79.90061 24.45251,-16.18167 52.06081,-32.90771 109.85024,-57.11947 56.24319,-23.56396 192.62831,-30.97694 192.62831,-30.97694 z"
         id="path1285"
         inkscape:connector-curvature="0"
         sodipodi:nodetypes="cssscsscc" />
    </clipPath>
  </defs>
  <metadata
     id="metadata5">
    <rdf:RDF>
      <cc:Work
         rdf:about="">
        <dc:format>image/svg+xml</dc:format>
        <dc:type
           rdf:resource="http://purl.org/dc/dcmitype/StillImage" />
        <dc:title></dc:title>
      </cc:Work>
    </rdf:RDF>
  </metadata>
  <g
     style="display:inline"
     inkscape:label="background"
     id="layer2"
     inkscape:groupmode="layer"
     transform="translate(3.6239624e-5,-5.999281)">
    <rect
       y="-10.000719"
       x="-20.000036"
       height="270"
       width="360"
       id="rect4533"
       style="fill:#498ba6;fill-opacity:1;stroke:none;stroke-width:2.79725456;stroke-miterlimit:4;stroke-dasharray:none;stroke-opacity:1" />
  </g>
  <g
     style="display:inline"
     transform="translate(3.6239624e-5,-62.999279)"
     id="layer1"
     inkscape:groupmode="layer"
     inkscape:label="text">
    <text
       id="text852"
       y="158.89195"
       x="233.38478"
       style="font-style:normal;font-variant:normal;font-weight:bold;font-stretch:condensed;font-size:14.11111069px;line-height:1;font-family:'Liberation Sans Narrow';-inkscape-font-specification:'Liberation Sans Narrow, Bold Condensed';font-variant-ligatures:normal;font-variant-caps:normal;font-variant-numeric:normal;font-feature-settings:normal;text-align:start;letter-spacing:0px;word-spacing:0.00264583px;writing-mode:lr-tb;text-anchor:start;fill:#000000;fill-opacity:1;stroke:none;stroke-width:0.26458332"
       xml:space="preserve"><tspan
         style="font-style:normal;font-variant:normal;font-weight:bold;font-stretch:condensed;font-size:14.11111069px;line-height:1;font-family:'Liberation Sans Narrow';-inkscape-font-specification:'Liberation Sans Narrow, Bold Condensed';font-variant-ligatures:normal;font-variant-caps:normal;font-variant-numeric:normal;font-feature-settings:normal;text-align:start;letter-spacing:0px;word-spacing:0px;writing-mode:lr-tb;text-anchor:start;fill:#ffffff;fill-opacity:1;stroke-width:0.26458332"
         y="158.89195"
         x="233.38478"
         sodipodi:role="line"
         id="tspan5785">THE </tspan><tspan
         style="font-style:normal;font-variant:normal;font-weight:bold;font-stretch:condensed;font-size:14.11111069px;line-height:1;font-family:'Liberation Sans Narrow';-inkscape-font-specification:'Liberation Sans Narrow, Bold Condensed';font-variant-ligatures:normal;font-variant-caps:normal;font-variant-numeric:normal;font-feature-settings:normal;text-align:start;letter-spacing:0px;word-spacing:0px;writing-mode:lr-tb;text-anchor:start;fill:#ffffff;fill-opacity:1;stroke-width:0.26458332"
         y="173.00307"
         x="233.38478"
         sodipodi:role="line"
         id="tspan5793">1090 </tspan><tspan
         style="font-style:normal;font-variant:normal;font-weight:bold;font-stretch:condensed;font-size:14.11111069px;line-height:1;font-family:'Liberation Sans Narrow';-inkscape-font-specification:'Liberation Sans Narrow, Bold Condensed';font-variant-ligatures:normal;font-variant-caps:normal;font-variant-numeric:normal;font-feature-settings:normal;text-align:start;letter-spacing:0px;word-spacing:0px;writing-mode:lr-tb;text-anchor:start;fill:#ffffff;fill-opacity:1;stroke-width:0.26458332"
         y="187.11417"
         x="233.38478"
         sodipodi:role="line"
         id="tspan5789">MEGAHERTZ</tspan><tspan
         style="font-style:normal;font-variant:normal;font-weight:bold;font-stretch:condensed;font-size:14.11111069px;line-height:1;font-family:'Liberation Sans Narrow';-inkscape-font-specification:'Liberation Sans Narrow, Bold Condensed';font-variant-ligatures:normal;font-variant-caps:normal;font-variant-numeric:normal;font-feature-settings:normal;text-align:start;letter-spacing:0px;word-spacing:0px;writing-mode:lr-tb;text-anchor:start;fill:#ffffff;fill-opacity:1;stroke-width:0.26458332"
         y="201.22528"
         x="233.38478"
         sodipodi:role="line"
         id="tspan5787">RIDDLE</tspan></text>
    <g
       transform="translate(154.74905,56.181175)"
       id="g4595">
      <text
         xml:space="preserve"
         style="font-style:normal;font-variant:normal;font-weight:normal;font-stretch:normal;font-size:6.3499999px;line-height:1.25;font-family:'Liberation Serif';-inkscape-font-specification:'Liberation Serif, Normal';font-variant-ligatures:normal;font-variant-caps:normal;font-variant-numeric:normal;font-feature-settings:normal;text-align:start;letter-spacing:0px;word-spacing:0px;writing-mode:lr-tb;text-anchor:start;fill:#ffffff;fill-opacity:1;stroke:none;stroke-width:0.26458332"
         x="78.635834"
         y="167.43689"
         id="text4538-0"><tspan
           sodipodi:role="line"
           id="tspan1026"
           x="78.635834"
           y="167.43689">A Guide to Decoding </tspan><tspan
           sodipodi:role="line"
           id="tspan1028"
           x="78.635834"
           y="175.37439">Mode S and ADS-B Signals</tspan></text>
    </g>
    <text
       id="text4599"
       y="121.30508"
       x="233.38478"
       style="font-style:normal;font-variant:normal;font-weight:bold;font-stretch:normal;font-size:6.3499999px;line-height:1.25;font-family:'Liberation Serif';-inkscape-font-specification:'Liberation Serif, Bold';font-variant-ligatures:normal;font-variant-caps:normal;font-variant-numeric:normal;font-feature-settings:normal;text-align:start;letter-spacing:0px;word-spacing:0px;writing-mode:lr-tb;text-anchor:start;fill:#000000;fill-opacity:1;stroke:none;stroke-width:0.26458332"
       xml:space="preserve"><tspan
         style="font-style:normal;font-variant:normal;font-weight:bold;font-stretch:normal;font-size:6.3499999px;font-family:'Liberation Serif';-inkscape-font-specification:'Liberation Serif, Bold';font-variant-ligatures:normal;font-variant-caps:normal;font-variant-numeric:normal;font-feature-settings:normal;text-align:start;writing-mode:lr-tb;text-anchor:start;fill:#ffffff;fill-opacity:1;stroke-width:0.26458332"
         y="121.30508"
         x="233.38478"
         id="tspan4597"
         sodipodi:role="line">Junzi Sun</tspan></text>
    <text
       id="text5100"
       y="73.056046"
       x="161.2388"
       style="font-style:normal;font-weight:normal;font-size:10.58333302px;line-height:1.25;font-family:sans-serif;letter-spacing:0px;word-spacing:0px;writing-mode:vertical-lr;fill:#000000;fill-opacity:1;stroke:none;stroke-width:0.26458332"
       xml:space="preserve"><tspan
         style="font-style:normal;font-variant:normal;font-weight:bold;font-stretch:condensed;font-size:4.93888903px;line-height:0;font-family:'Liberation Sans Narrow';-inkscape-font-specification:'Liberation Sans Narrow, Bold Condensed';font-variant-ligatures:normal;font-variant-caps:normal;font-variant-numeric:normal;font-feature-settings:normal;text-align:start;word-spacing:0px;writing-mode:tb-rl;text-anchor:start;fill:#ffffff;fill-opacity:1;stroke-width:0.26458332"
         y="161.2388"
         x="73.056046"
         id="tspan5098"
         sodipodi:role="line">THE 1090 MEGAHERTZ RIDDLE</tspan></text>
    <text
       id="text5100-9"
       y="260.28326"
       x="160.76324"
       style="font-style:normal;font-weight:normal;font-size:10.58333302px;line-height:1.25;font-family:sans-serif;letter-spacing:0px;word-spacing:0px;writing-mode:vertical-lr;display:inline;fill:#000000;fill-opacity:1;stroke:none;stroke-width:0.26458332"
       xml:space="preserve"><tspan
         style="font-style:normal;font-variant:normal;font-weight:bold;font-stretch:normal;font-size:4.93888903px;line-height:0;font-family:'Liberation Serif';-inkscape-font-specification:'Liberation Serif, Bold';font-variant-ligatures:normal;font-variant-caps:normal;font-variant-numeric:normal;font-feature-settings:normal;text-align:start;word-spacing:0px;writing-mode:tb-rl;text-anchor:start;fill:#ffffff;fill-opacity:1;stroke-width:0.26458332"
         y="160.76324"
         x="260.28326"
         id="tspan5098-3"
         sodipodi:role="line">JUNZI SUN</tspan></text>
  </g>
  <g
     inkscape:groupmode="layer"
     id="layer3"
     inkscape:label="airplane"
     transform="translate(3.6239624e-5,7.19e-4)">
    <g
       id="g1138"
       transform="matrix(0.848084,0,0,0.848084,49.438134,-24.676332)">
      <g
         id="g1143"
         transform="translate(35.586458,-31.088542)">
        <path
           style="fill:#ffffff;fill-opacity:1;stroke:none;stroke-width:0.14831638px;stroke-linecap:butt;stroke-linejoin:miter;stroke-opacity:1"
           d="m 131.17868,92.790883 -5.8926,1.006255 19.70443,-22.302912 -0.93732,20.055677 -9.13521,0.70883 8.72112,-18.086677 z"
           id="path1123"
           inkscape:connector-curvature="0" />
        <path
           sodipodi:nodetypes="ccccc"
           style="fill:#eeeeee;fill-opacity:1;stroke:none;stroke-width:0.14831638px;stroke-linecap:butt;stroke-linejoin:miter;stroke-opacity:1"
           d="m 131.01995,92.801464 6.3213,3.990766 -2.34245,-4.568012 8.83898,-18.401848 z"
           id="path1125"
           inkscape:connector-curvature="0" />
        <path
           style="fill:#dddddd;fill-opacity:1;stroke:none;stroke-width:0.14831638px;stroke-linecap:butt;stroke-linejoin:miter;stroke-opacity:1"
           d="m 134.96673,92.229486 2.37452,4.562744 2.19602,-4.896738 z"
           id="path1127"
           inkscape:connector-curvature="0"
           sodipodi:nodetypes="cccc" />
      </g>
    </g>
    <path
       style="fill:none;stroke:#ffffff;stroke-width:0.44999999;stroke-linecap:butt;stroke-linejoin:miter;stroke-miterlimit:4;stroke-dasharray:0.9, 0.45;stroke-dashoffset:0;stroke-opacity:0.94117647"
       d="m 195.7978,184.25425 c 0.14291,0.42874 0.11868,2.88336 -1.01832,5.01466 -0.75804,1.42095 -2.12364,3.17417 -2.2105,5.51683 -0.0869,2.34264 0.0789,4.60921 1.64221,6.13266 1.56331,1.52342 2.0721,2.01832 4.44053,1.54461 2.36844,-0.47371 2.16009,-4.82817 0.26634,-5.63621 -0.75418,-0.32181 -1.97558,-0.74656 -4.3842,1.32291 -2.14118,2.02345 -2.61135,4.88642 -2.69336,6.67433 -0.0348,2.3447 0.59827,4.84959 2.96938,5.84991 2.37113,1.00033 6.41101,-0.16652 5.06315,-3.6647 -1.08717,-2.76712 -4.05049,-2.06966 -5.2924,-0.24668 -1.10795,1.53028 -1.4467,2.84255 -1.52475,5.10454 0.25627,2.44087 0.52707,3.10422 1.2929,4.93848 1.01695,1.22942 1.40053,2.06279 1.71197,2.90526 0.41509,1.12283 0.22424,2.76924 0.22424,2.76924"
       id="path1133"
       inkscape:connector-curvature="0"
       sodipodi:nodetypes="cscccscccccccsc" />
    <path
       style="fill:none;stroke:#ffffff;stroke-width:0.44999999;stroke-linecap:butt;stroke-linejoin:miter;stroke-miterlimit:4;stroke-dasharray:0.45, 0.45;stroke-dashoffset:0;stroke-opacity:1"
       d="m 194.47803,61.199774 v 4.375276 h 6.82553 v 2.61793 h -13.26829 v 2.617933 h 16.36441 v 2.771928 h -19.13962 v 2.463937 h 19.13962 v 2.053277 h -17.59157 v 2.20727 H 205.807 v 2.30995 h -20.68768 v 2.4126 h 19.20999 v 2.46393 h -16.39534 v 2.25862 h 15.10634 v 2.00194 h -19.18758 v 2.207277 h 22.23574 v 2.258602 h -21.18025 v 2.207275 h 15.34269 v 1.899281 h -13.51316 v 2.15593 h 15.41021 v 2.10462 h -14.98802 v 2.00195 h 14.88672 v 2.05328 h -17.06807 v 2.05328 h 19.20998 v 1.74529 h -17.52119 v 1.95061 h 14.79815 v 1.69978 h -15.78624 v 2.03265 h 18.5094 v 2.17784 H 183.49 v 2.17783 h 18.5094 v 2.01973 h -16.32011 v 2.27144 h 19.50453 v 2.08789 h -22.09187 v 2.25728 h 21.89285 v 2.37221 h -19.30551 v 2.494 h 18.01184 v 2.32303 l -18.14179,-0.0184 -0.0351,1.96923 h 19.40381 v 2.01279 h -16.65089 v 1.90955 h 15.34127 v 1.90955 H 185.1802 v 1.90956 h 21.14102 v 2.05644 h -21.23457 v 2.05644 h 20.86039 v 2.27677 h -17.86697 v 2.05644 h 16.46381 v 2.05644 h -19.08305 v 2.20333 h 21.32811 v 2.42367 h -19.36368 v 2.12988 h 17.02507 v 2.35022 h -18.52178 v 2.44801 h 20.48621 v 2.47234 h -10.61728 v 7.4484"
       id="path1156"
       inkscape:connector-curvature="0"
       sodipodi:nodetypes="cccccccccccccccccccccccccccccccccccccccccccccccccccccccccccccccccccccccccccccccccccccccccccccccccccccc" />
    <path
       style="fill:none;stroke:#ffffff;stroke-width:0.44999999;stroke-linecap:butt;stroke-linejoin:miter;stroke-miterlimit:4;stroke-dasharray:0.9, 0.45;stroke-dashoffset:0;stroke-opacity:0.94117647"
       d="m 194.16172,36.115083 c 0.0815,3.471793 -1.78854,2.362557 -3.15339,5.493315 -0.23772,2.05586 -0.18907,2.16738 0.49186,3.899183 1.33574,1.45117 2.09558,3.599109 4.30661,3.349189 2.21103,-0.24993 3.22434,-2.123359 2.64204,-3.918879 -0.47378,-1.4609 -2.03196,-2.714662 -4.38745,-1.062982 -2.10634,1.63003 -2.16378,2.739966 -2.35967,4.307896 -0.14705,1.595861 2.43009,4.459159 2.99437,6.480656 0.25988,0.931 -0.2248,2.985151 -0.26186,3.455605"
       id="path1133-6"
       inkscape:connector-curvature="0"
       sodipodi:nodetypes="ccccsccsc" />
  </g>
  <g
     style="display:inline"
     inkscape:label="isbn"
     id="layer4"
     inkscape:groupmode="layer"
     transform="translate(3.6239624e-5,-5.999281)">
    <rect
       y="202.73515"
       x="16.133394"
       height="23.196991"
       width="46.779404"
       id="rect5184"
       style="fill:#ffffff;fill-opacity:1;stroke:none;stroke-width:0.36520883;stroke-miterlimit:4;stroke-dasharray:1.09562636, 0.3652088;stroke-dashoffset:0;stroke-opacity:0" />
  </g>
  <g
     style="display:inline"
     inkscape:label="isbn2"
     id="layer10"
     inkscape:groupmode="layer"
     transform="translate(3.6239624e-5,-11.999279)">
    <g
       style="shape-rendering:crispEdges"
       id="g1320"
       transform="matrix(0.74543835,0,0,0.74543835,17.563716,211.20259)">
      <g
         id="g1195"
         style="fill:#000000" />
      <g
         id="g1199"
         style="fill:#ffffff">
        <rect
           id="rect1197"
           height="26.458"
           width="59.796001"
           y="0"
           x="0" />
      </g>
      <g
         id="g1201"
         style="fill:#000000" />
      <g
         id="g1263"
         style="fill:#000000">
        <rect
           id="rect1203"
           height="23.0371"
           width="0.52920002"
           y="0"
           x="5.8207998" />
        <rect
           id="rect1205"
           height="23.0371"
           width="0.52920002"
           y="0"
           x="6.8792" />
        <rect
           id="rect1207"
           height="20.186399"
           width="1.5875"
           y="0"
           x="7.9375" />
        <rect
           id="rect1209"
           height="20.186399"
           width="1.0583"
           y="0"
           x="10.0542" />
        <rect
           id="rect1211"
           height="20.186399"
           width="0.52920002"
           y="0"
           x="12.7" />
        <rect
           id="rect1213"
           height="20.186399"
           width="0.52920002"
           y="0"
           x="14.2875" />
        <rect
           id="rect1215"
           height="20.186399"
           width="0.52920002"
           y="0"
           x="15.875" />
        <rect
           id="rect1217"
           height="20.186399"
           width="1.5875"
           y="0"
           x="16.933399" />
        <rect
           id="rect1219"
           height="20.186399"
           width="0.52920002"
           y="0"
           x="19.0501" />
        <rect
           id="rect1221"
           height="20.186399"
           width="1.0583"
           y="0"
           x="21.1667" />
        <rect
           id="rect1223"
           height="20.186399"
           width="0.52920002"
           y="0"
           x="24.3417" />
        <rect
           id="rect1225"
           height="20.186399"
           width="0.52920002"
           y="0"
           x="25.400101" />
        <rect
           id="rect1227"
           height="20.186399"
           width="2.1166999"
           y="0"
           x="26.458401" />
        <rect
           id="rect1229"
           height="20.186399"
           width="0.52920002"
           y="0"
           x="29.1042" />
        <rect
           id="rect1231"
           height="23.0371"
           width="0.52920002"
           y="0"
           x="30.1626" />
        <rect
           id="rect1233"
           height="23.0371"
           width="0.52920002"
           y="0"
           x="31.2209" />
        <rect
           id="rect1235"
           height="20.186399"
           width="0.52920002"
           y="0"
           x="32.279301" />
        <rect
           id="rect1237"
           height="20.186399"
           width="0.52920002"
           y="0"
           x="33.337601" />
        <rect
           id="rect1239"
           height="20.186399"
           width="0.52920002"
           y="0"
           x="35.983398" />
        <rect
           id="rect1241"
           height="20.186399"
           width="0.52920002"
           y="0"
           x="37.041801" />
        <rect
           id="rect1243"
           height="20.186399"
           width="0.52920002"
           y="0"
           x="39.687599" />
        <rect
           id="rect1245"
           height="20.186399"
           width="1.5875"
           y="0"
           x="40.745899" />
        <rect
           id="rect1247"
           height="20.186399"
           width="1.5875"
           y="0"
           x="43.3918" />
        <rect
           id="rect1249"
           height="20.186399"
           width="0.52920002"
           y="0"
           x="46.037601" />
        <rect
           id="rect1251"
           height="20.186399"
           width="1.0583"
           y="0"
           x="47.096001" />
        <rect
           id="rect1253"
           height="20.186399"
           width="1.0583"
           y="0"
           x="48.683498" />
        <rect
           id="rect1255"
           height="20.186399"
           width="0.52920002"
           y="0"
           x="50.800098" />
        <rect
           id="rect1257"
           height="20.186399"
           width="0.52920002"
           y="0"
           x="52.3876" />
        <rect
           id="rect1259"
           height="23.0371"
           width="0.52920002"
           y="0"
           x="54.504299" />
        <rect
           id="rect1261"
           height="23.0371"
           width="0.52920002"
           y="0"
           x="55.562698" />
      </g>
      <g
         id="g1271"
         style="fill:#000000">
        <text
           id="text1265"
           font-size="5.6444"
           y="25.282101"
           x="2.9103999"
           style="font-size:5.64440012px;font-family:Arial;text-anchor:middle">9</text>
        <text
           id="text1267"
           font-size="5.6444"
           y="25.282101"
           x="18.7855"
           style="font-size:5.64440012px;font-family:Arial;text-anchor:middle">789463</text>
        <text
           id="text1269"
           font-size="5.6444"
           y="25.282101"
           x="43.127201"
           style="font-size:5.64440012px;font-family:Arial;text-anchor:middle">664028</text>
      </g>
    </g>
  </g>
  <g
     style="display:inline"
     inkscape:label="spine"
     id="layer7"
     inkscape:groupmode="layer"
     transform="translate(3.6239624e-5,-5.999281)">
    <path
       inkscape:connector-curvature="0"
       id="path1333"
       d="M 156.0423,-11.079636 V 246.37375 l 9.91618,0.0935 V -10.992192 Z"
       style="fill:none;stroke:#ffffff;stroke-width:0.07421508;stroke-linecap:butt;stroke-linejoin:miter;stroke-miterlimit:4;stroke-dasharray:none;stroke-opacity:1" />
  </g>
  <g
     sodipodi:insensitive="true"
     inkscape:groupmode="layer"
     inkscape:label="Printing Marks"
     id="printing-marks"
     transform="translate(3.6239624e-5,7.19e-4)"
     style="display:none">
    <g
       inkscape:label="CropMarks"
       id="CropMarks">
      <path
         style="fill:none;stroke:#000000;stroke-width:0.25"
         id="cropTL1"
         d="M 0,-1.3229167 V -11.322917"
         inkscape:connector-curvature="0" />
      <path
         style="fill:none;stroke:#000000;stroke-width:0.25"
         id="cropTL2"
         d="M -1.3229167,0 H -11.322917"
         inkscape:connector-curvature="0" />
      <path
         style="fill:none;stroke:#000000;stroke-width:0.25"
         id="cropTR1"
         d="M 322,-1.3229167 V -11.322917"
         inkscape:connector-curvature="0" />
      <path
         style="fill:none;stroke:#000000;stroke-width:0.25"
         id="cropTR2"
         d="m 323.32292,0 h 10"
         inkscape:connector-curvature="0" />
      <path
         style="fill:none;stroke:#000000;stroke-width:0.25"
         id="cropBL1"
         d="m 0,235.32292 v 10"
         inkscape:connector-curvature="0" />
      <path
         style="fill:none;stroke:#000000;stroke-width:0.25"
         id="cropBL2"
         d="M -1.3229167,234 H -11.322917"
         inkscape:connector-curvature="0" />
      <path
         style="fill:none;stroke:#000000;stroke-width:0.25"
         id="cropBR1"
         d="m 322,235.32292 v 10"
         inkscape:connector-curvature="0" />
      <path
         style="fill:none;stroke:#000000;stroke-width:0.25"
         id="cropBR2"
         d="m 323.32292,234 h 10"
         inkscape:connector-curvature="0" />
    </g>
    <g
       inkscape:label="RegistrationMarks"
       id="RegistrationMarks">
      <g
         id="regMarkL">
        <path
           id="path5700"
           transform="translate(-8,102)"
           style="fill:#000000;fill-opacity:1;stroke:none"
           d="M 0,5 H -1 L 4,0 -1,-5 h 1 l 5,5 z"
           inkscape:connector-curvature="0" />
        <path
           id="path5702"
           transform="translate(-8,102)"
           style="fill:#00ffff;fill-opacity:1;stroke:none"
           d="M -1,5 H -2 L 3,0 -2,-5 h 1 l 5,5 z"
           inkscape:connector-curvature="0" />
        <path
           id="path5704"
           transform="translate(-8,102)"
           style="fill:#ff00ff;fill-opacity:1;stroke:none"
           d="M -2,5 H -3 L 2,0 -3,-5 h 1 l 5,5 z"
           inkscape:connector-curvature="0" />
        <path
           id="path5706"
           transform="translate(-8,102)"
           style="fill:#ffff00;fill-opacity:1;stroke:none"
           d="M -3,5 H -4 L 1,0 -4,-5 h 1 l 5,5 z"
           inkscape:connector-curvature="0" />
        <path
           id="path5708"
           transform="translate(-8,102)"
           style="fill:#000000;fill-opacity:1;stroke:none"
           d="M -4,5 H -5 L 0,0 -5,-5 h 1 l 5,5 z"
           inkscape:connector-curvature="0" />
      </g>
      <g
         id="regMarkR">
        <path
           id="path5711"
           transform="rotate(180,165,51)"
           style="fill:#000000;fill-opacity:1;stroke:none"
           d="M 0,5 H -1 L 4,0 -1,-5 h 1 l 5,5 z"
           inkscape:connector-curvature="0" />
        <path
           id="path5713"
           transform="rotate(180,165,51)"
           style="fill:#00ffff;fill-opacity:1;stroke:none"
           d="M -1,5 H -2 L 3,0 -2,-5 h 1 l 5,5 z"
           inkscape:connector-curvature="0" />
        <path
           id="path5715"
           transform="rotate(180,165,51)"
           style="fill:#ff00ff;fill-opacity:1;stroke:none"
           d="M -2,5 H -3 L 2,0 -3,-5 h 1 l 5,5 z"
           inkscape:connector-curvature="0" />
        <path
           id="path5717"
           transform="rotate(180,165,51)"
           style="fill:#ffff00;fill-opacity:1;stroke:none"
           d="M -3,5 H -4 L 1,0 -4,-5 h 1 l 5,5 z"
           inkscape:connector-curvature="0" />
        <path
           id="path5719"
           transform="rotate(180,165,51)"
           style="fill:#000000;fill-opacity:1;stroke:none"
           d="M -4,5 H -5 L 0,0 -5,-5 h 1 l 5,5 z"
           inkscape:connector-curvature="0" />
      </g>
      <g
         id="regMarkT">
        <path
           id="path5722"
           transform="rotate(90,84.5,76.5)"
           style="fill:#000000;fill-opacity:1;stroke:none"
           d="M 0,5 H -1 L 4,0 -1,-5 h 1 l 5,5 z"
           inkscape:connector-curvature="0" />
        <path
           id="path5724"
           transform="rotate(90,84.5,76.5)"
           style="fill:#00ffff;fill-opacity:1;stroke:none"
           d="M -1,5 H -2 L 3,0 -2,-5 h 1 l 5,5 z"
           inkscape:connector-curvature="0" />
        <path
           id="path5726"
           transform="rotate(90,84.5,76.5)"
           style="fill:#ff00ff;fill-opacity:1;stroke:none"
           d="M -2,5 H -3 L 2,0 -3,-5 h 1 l 5,5 z"
           inkscape:connector-curvature="0" />
        <path
           id="path5728"
           transform="rotate(90,84.5,76.5)"
           style="fill:#ffff00;fill-opacity:1;stroke:none"
           d="M -3,5 H -4 L 1,0 -4,-5 h 1 l 5,5 z"
           inkscape:connector-curvature="0" />
        <path
           id="path5730"
           transform="rotate(90,84.5,76.5)"
           style="fill:#000000;fill-opacity:1;stroke:none"
           d="M -4,5 H -5 L 0,0 -5,-5 h 1 l 5,5 z"
           inkscape:connector-curvature="0" />
      </g>
      <g
         id="regMarkB">
        <path
           id="path5733"
           transform="rotate(-90,201.5,40.5)"
           style="fill:#000000;fill-opacity:1;stroke:none"
           d="M 0,5 H -1 L 4,0 -1,-5 h 1 l 5,5 z"
           inkscape:connector-curvature="0" />
        <path
           id="path5735"
           transform="rotate(-90,201.5,40.5)"
           style="fill:#00ffff;fill-opacity:1;stroke:none"
           d="M -1,5 H -2 L 3,0 -2,-5 h 1 l 5,5 z"
           inkscape:connector-curvature="0" />
        <path
           id="path5737"
           transform="rotate(-90,201.5,40.5)"
           style="fill:#ff00ff;fill-opacity:1;stroke:none"
           d="M -2,5 H -3 L 2,0 -3,-5 h 1 l 5,5 z"
           inkscape:connector-curvature="0" />
        <path
           id="path5739"
           transform="rotate(-90,201.5,40.5)"
           style="fill:#ffff00;fill-opacity:1;stroke:none"
           d="M -3,5 H -4 L 1,0 -4,-5 h 1 l 5,5 z"
           inkscape:connector-curvature="0" />
        <path
           id="path5741"
           transform="rotate(-90,201.5,40.5)"
           style="fill:#000000;fill-opacity:1;stroke:none"
           d="M -4,5 H -5 L 0,0 -5,-5 h 1 l 5,5 z"
           inkscape:connector-curvature="0" />
      </g>
    </g>
    <g
       inkscape:label="StarTarget"
       id="StarTarget">
      <path
         id="path5745"
         inkscape:label="starTargetL"
         transform="translate(-8,117)"
         style="fill:#000000;fill-opacity:1;stroke:none"
         d="M 0,0 V 0 L 0.97545161,4.9039264 1.4122615,4.7964067 0,0 1.9134172,4.6193977 2.3208578,4.4287266 0,0 2.7778512,4.1573481 3.1402649,3.8908529 0,0 3.5355339,3.5355339 3.8389933,3.203456 0,0 4.1573481,2.7778512 4.3901914,2.392952 0,0 4.6193977,1.9134172 4.7726769,1.4904883 0,0 4.9039264,0.97545161 4.9717511,0.53074591 0,0 H 5 L 4.9797637,-0.44939275 0,0 4.9039264,-0.97545161 4.7964067,-1.4122615 0,0 4.6193977,-1.9134172 4.4287266,-2.3208578 0,0 4.1573481,-2.7778512 3.8908529,-3.1402649 0,0 3.5355339,-3.5355339 3.203456,-3.8389933 0,0 2.7778512,-4.1573481 2.392952,-4.3901914 0,0 1.9134172,-4.6193977 1.4904883,-4.7726769 0,0 0.97545161,-4.9039264 0.53074591,-4.9717511 0,0 V -5 L -0.44939275,-4.9797637 0,0 -0.97545161,-4.9039264 -1.4122615,-4.7964067 0,0 -1.9134172,-4.6193977 -2.3208578,-4.4287266 0,0 -2.7778512,-4.1573481 -3.1402649,-3.8908529 0,0 -3.5355339,-3.5355339 -3.8389933,-3.203456 0,0 -4.1573481,-2.7778512 -4.3901914,-2.392952 0,0 -4.6193977,-1.9134172 -4.7726769,-1.4904883 0,0 -4.9039264,-0.97545161 -4.9717511,-0.53074591 0,0 H -5 L -4.9797637,0.44939275 0,0 -4.9039264,0.97545161 -4.7964067,1.4122615 0,0 -4.6193977,1.9134172 -4.4287266,2.3208578 0,0 -4.1573481,2.7778512 -3.8908529,3.1402649 0,0 -3.5355339,3.5355339 -3.203456,3.8389933 0,0 -2.7778512,4.1573481 -2.392952,4.3901914 0,0 -1.9134172,4.6193977 -1.4904883,4.7726769 0,0 -0.97545161,4.9039264 -0.53074591,4.9717511 0,0 V 5 L 0.44939275,4.979764"
         inkscape:connector-curvature="0" />
      <path
         id="path5747"
         inkscape:label="starTargetR"
         transform="translate(330,117)"
         style="fill:#000000;fill-opacity:1;stroke:none"
         d="M 0,0 V 0 L 0.97545161,4.9039264 1.4122615,4.7964067 0,0 1.9134172,4.6193977 2.3208578,4.4287266 0,0 2.7778512,4.1573481 3.1402649,3.8908529 0,0 3.5355339,3.5355339 3.8389933,3.203456 0,0 4.1573481,2.7778512 4.3901914,2.392952 0,0 4.6193977,1.9134172 4.7726769,1.4904883 0,0 4.9039264,0.97545161 4.9717511,0.53074591 0,0 H 5 L 4.9797637,-0.44939275 0,0 4.9039264,-0.97545161 4.7964067,-1.4122615 0,0 4.6193977,-1.9134172 4.4287266,-2.3208578 0,0 4.1573481,-2.7778512 3.8908529,-3.1402649 0,0 3.5355339,-3.5355339 3.203456,-3.8389933 0,0 2.7778512,-4.1573481 2.392952,-4.3901914 0,0 1.9134172,-4.6193977 1.4904883,-4.7726769 0,0 0.97545161,-4.9039264 0.53074591,-4.9717511 0,0 V -5 L -0.44939275,-4.9797637 0,0 -0.97545161,-4.9039264 -1.4122615,-4.7964067 0,0 -1.9134172,-4.6193977 -2.3208578,-4.4287266 0,0 -2.7778512,-4.1573481 -3.1402649,-3.8908529 0,0 -3.5355339,-3.5355339 -3.8389933,-3.203456 0,0 -4.1573481,-2.7778512 -4.3901914,-2.392952 0,0 -4.6193977,-1.9134172 -4.7726769,-1.4904883 0,0 -4.9039264,-0.97545161 -4.9717511,-0.53074591 0,0 H -5 L -4.9797637,0.44939275 0,0 -4.9039264,0.97545161 -4.7964067,1.4122615 0,0 -4.6193977,1.9134172 -4.4287266,2.3208578 0,0 -4.1573481,2.7778512 -3.8908529,3.1402649 0,0 -3.5355339,3.5355339 -3.203456,3.8389933 0,0 -2.7778512,4.1573481 -2.392952,4.3901914 0,0 -1.9134172,4.6193977 -1.4904883,4.7726769 0,0 -0.97545161,4.9039264 -0.53074591,4.9717511 0,0 V 5 L 0.44939275,4.979764"
         inkscape:connector-curvature="0" />
    </g>
  </g>
</svg>
